<svg xmlns="http://www.w3.org/2000/svg" xmlns:xlink="http://www.w3.org/1999/xlink" width="500" zoomAndPan="magnify" viewBox="0 0 375 374.999991" height="500" preserveAspectRatio="xMidYMid meet" version="1.0"><defs><clipPath id="b6ded24010"><path d="M 137.808594 160.476562 L 237.335938 160.476562 L 237.335938 247.777344 L 137.808594 247.777344 Z M 137.808594 160.476562 " clip-rule="nonzero"/></clipPath><clipPath id="edbff621d6"><path d="M 141.746094 174.703125 C 133.691406 187.980469 139.367188 200.898438 146.5 207.757812 L 188.214844 247.777344 L 229.046875 207.902344 C 235.683594 200.523438 238.226562 192.699219 236.816406 183.984375 C 234.863281 171.929688 224.929688 162.578125 212.660156 161.242188 C 205.132812 160.433594 197.863281 162.5625 192.1875 167.277344 C 190.660156 168.546875 189.296875 169.964844 188.105469 171.507812 C 186.695312 169.75 185.039062 168.144531 183.167969 166.722656 C 176.644531 161.761719 168.339844 159.792969 160.359375 161.324219 C 152.804688 162.785156 146.019531 167.660156 141.746094 174.703125 Z M 141.746094 174.703125 " clip-rule="nonzero"/></clipPath><clipPath id="2036b629ed"><path d="M 76.1875 47.925781 L 298.9375 47.925781 L 298.9375 326.925781 L 76.1875 326.925781 Z M 76.1875 47.925781 " clip-rule="nonzero"/></clipPath></defs><g clip-path="url(#b6ded24010)"><g clip-path="url(#edbff621d6)"><path fill="#ffffff" d="M 137.808594 160.816406 L 237.335938 160.816406 L 237.335938 247.777344 L 137.808594 247.777344 Z M 137.808594 160.816406 " fill-opacity="1" fill-rule="nonzero"/></g></g><g clip-path="url(#2036b629ed)"><path fill="#28a8df" d="M 298.53125 120.367188 C 298.527344 120.292969 298.523438 120.222656 298.519531 120.148438 C 298.507812 119.886719 298.480469 119.632812 298.445312 119.382812 C 298.433594 119.3125 298.425781 119.238281 298.414062 119.167969 C 298.355469 118.851562 298.28125 118.539062 298.1875 118.238281 C 298.183594 118.226562 298.175781 118.214844 298.171875 118.207031 C 298.078125 117.914062 297.960938 117.628906 297.832031 117.351562 C 297.800781 117.289062 297.773438 117.230469 297.742188 117.167969 C 297.597656 116.882812 297.441406 116.601562 297.261719 116.339844 C 297.25 116.324219 297.238281 116.308594 297.226562 116.292969 C 297.054688 116.042969 296.859375 115.804688 296.660156 115.582031 C 296.632812 115.550781 296.609375 115.511719 296.582031 115.480469 L 236.328125 50.277344 C 236.285156 50.234375 236.242188 50.191406 236.199219 50.148438 C 236.148438 50.097656 236.097656 50.046875 236.046875 49.996094 C 235.933594 49.886719 235.816406 49.78125 235.699219 49.679688 C 235.652344 49.640625 235.609375 49.601562 235.5625 49.5625 C 235.394531 49.425781 235.222656 49.296875 235.046875 49.175781 C 235.019531 49.15625 234.988281 49.140625 234.957031 49.121094 C 234.808594 49.023438 234.660156 48.933594 234.507812 48.847656 C 234.4375 48.808594 234.363281 48.769531 234.289062 48.734375 C 234.171875 48.671875 234.054688 48.613281 233.933594 48.558594 C 233.851562 48.523438 233.769531 48.488281 233.691406 48.453125 C 233.550781 48.398438 233.40625 48.347656 233.265625 48.300781 C 233.179688 48.269531 233.09375 48.242188 233.007812 48.214844 C 232.839844 48.167969 232.664062 48.121094 232.492188 48.085938 C 232.414062 48.066406 232.335938 48.054688 232.261719 48.039062 C 232.109375 48.011719 231.957031 47.988281 231.804688 47.96875 C 231.738281 47.960938 231.671875 47.953125 231.605469 47.945312 C 231.378906 47.925781 231.15625 47.914062 230.929688 47.914062 C 230.929688 47.914062 230.925781 47.914062 230.925781 47.914062 L 83.820312 47.914062 C 79.757812 47.914062 76.464844 51.207031 76.464844 55.269531 L 76.464844 319.722656 C 76.464844 323.785156 79.757812 327.082031 83.820312 327.082031 L 291.175781 327.082031 C 295.242188 327.082031 298.535156 323.785156 298.535156 319.722656 L 298.535156 120.472656 C 298.535156 120.4375 298.53125 120.402344 298.53125 120.367188 Z M 238.28125 74.070312 L 274.359375 113.113281 L 238.28125 113.113281 Z M 91.179688 312.363281 L 91.179688 62.625 L 223.566406 62.625 L 223.566406 120.472656 C 223.566406 124.535156 226.863281 127.832031 230.925781 127.832031 L 283.820312 127.832031 L 283.820312 312.363281 Z M 91.179688 312.363281 " fill-opacity="1" fill-rule="nonzero"/></g></svg>